<?xml version="1.0" encoding="UTF-8"?>
<svg xmlns="http://www.w3.org/2000/svg" xmlns:csurvey="http://www.csurvey.it" viewBox="0 0 5.265 35.715" csurvey:sign="777" csurvey:scale="1.000">
  <title>water-flow</title>
  <path d="M 0 7.922 L 2.499 0 L 4.734 7.988 L 0 7.922 L 0 7.922 Z" fill="#000000" fill-rule="evenodd"/>
  <path d="M 3.017 7.804 C 2.57 8.194 2.31 8.756 2.303 9.349 C 2.277 10.387 2.862 10.901 3.603 11.549 C 4.661 12.185 5.295 13.34 5.264 14.573 C 5.233 15.807 4.541 16.929 3.452 17.51 C 2.68 18.122 2.069 18.61 2.043 19.639 C 2.017 20.668 2.602 21.192 3.343 21.839 C 4.401 22.477 5.036 23.634 5.004 24.87 C 4.973 26.105 4.281 27.229 3.192 27.813 C 2.42 28.429 1.809 28.913 1.783 29.955 C 1.757 30.997 2.342 31.511 3.083 32.162 C 4.104 32.837 4.726 33.973 4.743 35.197 C 4.74 35.338 4.68 35.472 4.578 35.569 C 4.476 35.666 4.339 35.719 4.198 35.715 L 4.198 35.715 C 4.057 35.712 3.923 35.652 3.826 35.55 C 3.729 35.448 3.676 35.311 3.68 35.17 C 3.706 34.127 3.121 33.609 2.38 32.959 C 1.323 32.319 0.69 31.161 0.721 29.926 C 0.753 28.69 1.444 27.566 2.533 26.981 C 3.305 26.365 3.916 25.881 3.943 24.839 C 3.97 23.797 3.383 23.287 2.643 22.639 C 1.586 22.003 0.952 20.848 0.983 19.615 C 1.014 18.381 1.706 17.26 2.794 16.678 C 3.566 16.066 4.177 15.583 4.203 14.548 C 4.229 13.513 3.644 12.996 2.903 12.348 C 1.883 11.676 1.261 10.543 1.242 9.321 C 1.258 8.395 1.679 7.523 2.394 6.935 Z" fill="#000000"/>
</svg>
