<?xml version="1.0" encoding="UTF-8"?>
<svg xmlns="http://www.w3.org/2000/svg" xmlns:csurvey="http://www.csurvey.it" viewBox="0 0 27.238 27.238" csurvey:scale="0.763">
  <title>minus</title>
  <path d="M 13.619 27.238 C 6.097 27.238 0 21.141 0 13.619 C 0 6.097 6.097 0 13.619 0 C 21.141 0 27.238 6.097 27.238 13.619 C 27.23 21.137 21.137 27.23 13.619 27.238 Z M 13.619 1.001 C 8.515 1.001 3.914 4.076 1.96 8.791 C 0.007 13.507 1.087 18.934 4.696 22.543 C 8.306 26.152 13.733 27.232 18.449 25.278 C 23.164 23.325 26.238 18.723 26.238 13.619 C 26.23 6.653 20.585 1.008 13.619 1.001 Z" fill="#000000"/>
  <path d="M 6.377 13.119 L 20.862 13.119 L 20.862 14.119 L 6.377 14.119 Z" fill="#000000"/>
</svg>
